<?xml version="1.0" encoding="utf-8"?>
<!-- Generator: Adobe Illustrator 15.0.0, SVG Export Plug-In  -->
<!DOCTYPE svg PUBLIC "-//W3C//DTD SVG 1.1//EN" "http://www.w3.org/Graphics/SVG/1.1/DTD/svg11.dtd" [
	<!ENTITY ns_flows "http://ns.adobe.com/Flows/1.0/">
]>
<svg version="1.1"
	 xmlns="http://www.w3.org/2000/svg" xmlns:xlink="http://www.w3.org/1999/xlink" xmlns:a="http://ns.adobe.com/AdobeSVGViewerExtensions/3.0/"
	 x="0px" y="0px" width="470px" height="300px" viewBox="-2 -1.5 470 300"
	 overflow="visible" enable-background="new -2 -1.5 470 300" xml:space="preserve">
<defs>
</defs>
<g>
	<g>
		<line fill="none" stroke="#000000" stroke-miterlimit="10" x1="82.5" y1="2.5" x2="82.5" y2="8.5"/>
		<line fill="none" stroke="#000000" stroke-miterlimit="10" stroke-dasharray="12,12" x1="82.5" y1="20.5" x2="82.5" y2="280.5"/>
		<line fill="none" stroke="#000000" stroke-miterlimit="10" x1="82.5" y1="286.5" x2="82.5" y2="292.5"/>
	</g>
</g>
<g>
	<g>
		<line fill="none" stroke="#000000" stroke-miterlimit="10" x1="3.5" y1="2.5" x2="3.5" y2="8.5"/>
		<line fill="none" stroke="#000000" stroke-miterlimit="10" stroke-dasharray="12,12" x1="3.5" y1="20.5" x2="3.5" y2="280.5"/>
		<line fill="none" stroke="#000000" stroke-miterlimit="10" x1="3.5" y1="286.5" x2="3.5" y2="292.5"/>
	</g>
</g>
<g>
	<g>
		<line fill="none" stroke="#000000" stroke-miterlimit="10" x1="161.5" y1="2.5" x2="161.5" y2="8.5"/>
		
			<line fill="none" stroke="#000000" stroke-miterlimit="10" stroke-dasharray="12,12" x1="161.5" y1="20.5" x2="161.5" y2="280.5"/>
		<line fill="none" stroke="#000000" stroke-miterlimit="10" x1="161.5" y1="286.5" x2="161.5" y2="292.5"/>
	</g>
</g>
<g>
	<g>
		<line fill="none" stroke="#000000" stroke-miterlimit="10" x1="240.5" y1="2.5" x2="240.5" y2="8.5"/>
		
			<line fill="none" stroke="#000000" stroke-miterlimit="10" stroke-dasharray="12,12" x1="240.5" y1="20.5" x2="240.5" y2="280.5"/>
		<line fill="none" stroke="#000000" stroke-miterlimit="10" x1="240.5" y1="286.5" x2="240.5" y2="292.5"/>
	</g>
</g>
<g>
	<g>
		<line fill="none" stroke="#000000" stroke-miterlimit="10" x1="319.5" y1="2.5" x2="319.5" y2="8.5"/>
		
			<line fill="none" stroke="#000000" stroke-miterlimit="10" stroke-dasharray="12,12" x1="319.5" y1="20.5" x2="319.5" y2="280.5"/>
		<line fill="none" stroke="#000000" stroke-miterlimit="10" x1="319.5" y1="286.5" x2="319.5" y2="292.5"/>
	</g>
</g>
<g>
	<g>
		<line fill="none" stroke="#000000" stroke-miterlimit="10" x1="398.5" y1="2.5" x2="398.5" y2="8.5"/>
		
			<line fill="none" stroke="#000000" stroke-miterlimit="10" stroke-dasharray="12,12" x1="398.5" y1="20.5" x2="398.5" y2="280.5"/>
		<line fill="none" stroke="#000000" stroke-miterlimit="10" x1="398.5" y1="286.5" x2="398.5" y2="292.5"/>
	</g>
</g>
<line fill="none" stroke="#000000" stroke-width="3" stroke-linecap="round" stroke-miterlimit="10" x1="4" y1="204" x2="63" y2="204"/>
<line fill="none" stroke="#000000" stroke-width="3" stroke-linecap="round" stroke-miterlimit="10" x1="63" y1="204" x2="150.363" y2="241.531"/>
<line fill="none" stroke="#000000" stroke-width="3" stroke-linecap="round" stroke-miterlimit="10" x1="150.363" y1="241.531" x2="248.47" y2="142"/>
<line fill="none" stroke="#000000" stroke-width="3" stroke-linecap="round" stroke-miterlimit="10" x1="248" y1="142" x2="394" y2="142"/>
<line fill="none" stroke="#000000" stroke-width="3" stroke-linecap="round" stroke-miterlimit="10" x1="394" y1="142" x2="460" y2="53.995"/>
<line fill="none" stroke="#000000" stroke-width="3" stroke-linecap="round" stroke-miterlimit="10" x1="3.5" y1="196.44" x2="47.786" y2="178.459"/>
<line fill="none" stroke="#000000" stroke-width="3" stroke-linecap="round" stroke-miterlimit="10" x1="47.786" y1="178.459" x2="100.782" y2="210.005"/>
<line fill="none" stroke="#000000" stroke-width="3" stroke-linecap="round" stroke-miterlimit="10" x1="100.782" y1="210.005" x2="136.745" y2="180.667"/>
<line fill="none" stroke="#000000" stroke-width="3" stroke-linecap="round" stroke-miterlimit="10" x1="136.745" y1="180.667" x2="188.479" y2="181.298"/>
<line fill="none" stroke="#000000" stroke-width="3" stroke-linecap="round" stroke-miterlimit="10" x1="188.479" y1="181.298" x2="244.631" y2="118.837"/>
<line fill="none" stroke="#000000" stroke-width="3" stroke-linecap="round" stroke-miterlimit="10" x1="244.631" y1="118.837" x2="292.628" y2="135.688"/>
<line fill="none" stroke="#000000" stroke-width="3" stroke-linecap="round" stroke-miterlimit="10" x1="292.628" y1="135.688" x2="361.981" y2="63.948"/>
<line fill="none" stroke="#000000" stroke-width="3" stroke-linecap="round" stroke-miterlimit="10" x1="361.981" y1="63.948" x2="459" y2="31.456"/>
<line fill="none" stroke="#000000" stroke-width="3" stroke-linecap="round" stroke-miterlimit="10" x1="3.5" y1="248.806" x2="63.874" y2="274.043"/>
<line fill="none" stroke="#000000" stroke-width="3" stroke-linecap="round" stroke-miterlimit="10" x1="63.874" y1="274.043" x2="165.767" y2="219.469"/>
<line fill="none" stroke="#000000" stroke-width="3" stroke-linecap="round" stroke-miterlimit="10" x1="165.767" y1="219.469" x2="215.293" y2="221.361"/>
<line fill="none" stroke="#000000" stroke-width="3" stroke-linecap="round" stroke-miterlimit="10" x1="215.293" y1="221.361" x2="308.038" y2="173.412"/>
<line fill="none" stroke="#000000" stroke-width="3" stroke-linecap="round" stroke-miterlimit="10" x1="308.038" y1="173.412" x2="346.523" y2="179.09"/>
<line fill="none" stroke="#000000" stroke-width="3" stroke-linecap="round" stroke-miterlimit="10" x1="346.523" y1="179.09" x2="437.06" y2="74.358"/>
<line fill="none" stroke="#000000" stroke-width="3" stroke-linecap="round" stroke-miterlimit="10" x1="437.06" y1="74.358" x2="460" y2="40.604"/>
<line fill="none" stroke="#000000" stroke-width="5" stroke-linecap="round" stroke-miterlimit="10" x1="2.5" y1="2.5" x2="2.5" y2="292.5"/>
<line fill="none" stroke="#000000" stroke-width="5" stroke-linecap="round" stroke-miterlimit="10" x1="4" y1="294" x2="460" y2="294"/>
</svg>
